<svg width="13" height="12" viewBox="0 0 13 12" fill="none" xmlns="http://www.w3.org/2000/svg">
<path d="M1.69876 6.56545L9.88263 6.56545L6.30722 10.1409C6.02148 10.4266 6.02148 10.8955 6.30722 11.1812C6.375 11.2492 6.45552 11.3031 6.54415 11.3398C6.63278 11.3766 6.7278 11.3955 6.82375 11.3955C6.91971 11.3955 7.01472 11.3766 7.10336 11.3398C7.19199 11.3031 7.2725 11.2492 7.34028 11.1812L12.1685 6.35298C12.2365 6.2852 12.2904 6.20468 12.3271 6.11605C12.3639 6.02742 12.3828 5.9324 12.3828 5.83645C12.3828 5.74049 12.3639 5.64548 12.3271 5.55685C12.2904 5.46821 12.2365 5.3877 12.1685 5.31992L7.34028 0.491653C7.27245 0.423821 7.19192 0.370015 7.1033 0.333305C7.01467 0.296595 6.91968 0.277701 6.82375 0.277701C6.72782 0.277701 6.63284 0.296595 6.54421 0.333305C6.45558 0.370015 6.37505 0.423821 6.30722 0.491653C6.23939 0.559484 6.18559 0.640013 6.14887 0.728639C6.11216 0.817265 6.09327 0.912255 6.09327 1.00818C6.09327 1.10411 6.11216 1.1991 6.14887 1.28773C6.18559 1.37635 6.23939 1.45688 6.30722 1.52471L9.88263 5.10012L1.69876 5.10012C1.29579 5.10012 0.966091 5.42982 0.966091 5.83279C0.966091 6.23575 1.29579 6.56545 1.69876 6.56545Z" fill="black"/>
</svg>
