<svg width="95" height="19" viewBox="0 0 95 19" fill="none" xmlns="http://www.w3.org/2000/svg">
<path d="M11.4233 3.40771C14.788 3.40771 17.5156 6.13533 17.5156 9.50002H11.4233V3.40771Z" fill="black"/>
<path d="M17.5152 15.5925C14.1505 15.5925 11.4229 12.8649 11.4229 9.50022H17.5152V15.5925Z" fill="black"/>
<path d="M5.33054 15.5925C8.69523 15.5925 11.4229 12.8649 11.4229 9.50022H5.33054V15.5925Z" fill="black"/>
<path d="M5.33054 9.50024C8.69523 9.50024 11.4229 6.77263 11.4229 3.40794H5.33054V9.50024Z" fill="black"/>
<path d="M23.9338 5.43606V3.72369H32.9306V5.43606H29.4453V15H27.4191V5.43606H23.9338ZM37.0394 15.1652C36.2135 15.1652 35.4978 14.9835 34.8921 14.6201C34.2864 14.2567 33.8166 13.7483 33.4826 13.0949C33.1522 12.4415 32.987 11.678 32.987 10.8044C32.987 9.9308 33.1522 9.16546 33.4826 8.50841C33.8166 7.85136 34.2864 7.34114 34.8921 6.97774C35.4978 6.61435 36.2135 6.43265 37.0394 6.43265C37.8653 6.43265 38.5811 6.61435 39.1868 6.97774C39.7924 7.34114 40.2605 7.85136 40.5908 8.50841C40.9248 9.16546 41.0919 9.9308 41.0919 10.8044C41.0919 11.678 40.9248 12.4415 40.5908 13.0949C40.2605 13.7483 39.7924 14.2567 39.1868 14.6201C38.5811 14.9835 37.8653 15.1652 37.0394 15.1652ZM37.0505 13.5684C37.4983 13.5684 37.8727 13.4455 38.1737 13.1995C38.4747 12.9499 38.6986 12.6159 38.8454 12.1974C38.9959 11.779 39.0712 11.3128 39.0712 10.7989C39.0712 10.2813 38.9959 9.81334 38.8454 9.39488C38.6986 8.97275 38.4747 8.63689 38.1737 8.38728C37.8727 8.13768 37.4983 8.01287 37.0505 8.01287C36.5916 8.01287 36.2099 8.13768 35.9052 8.38728C35.6042 8.63689 35.3785 8.97275 35.228 9.39488C35.0811 9.81334 35.0077 10.2813 35.0077 10.7989C35.0077 11.3128 35.0811 11.779 35.228 12.1974C35.3785 12.6159 35.6042 12.9499 35.9052 13.1995C36.2099 13.4455 36.5916 13.5684 37.0505 13.5684ZM45.922 15.1487C45.2576 15.1487 44.663 14.978 44.1381 14.6366C43.6132 14.2952 43.1984 13.7997 42.8937 13.15C42.589 12.5003 42.4367 11.7111 42.4367 10.7824C42.4367 9.8427 42.5909 9.04984 42.8992 8.4038C43.2112 7.75409 43.6315 7.26406 44.1601 6.9337C44.6887 6.59966 45.2778 6.43265 45.9275 6.43265C46.4231 6.43265 46.8305 6.51707 47.1498 6.68592C47.4692 6.8511 47.7225 7.05116 47.9097 7.28608C48.0969 7.51733 48.2419 7.73574 48.3447 7.9413H48.4272V3.72369H50.4259V15H48.4658V13.6675H48.3447C48.2419 13.8731 48.0932 14.0915 47.8987 14.3228C47.7041 14.5503 47.4472 14.7449 47.1278 14.9064C46.8085 15.0679 46.4065 15.1487 45.922 15.1487ZM46.4781 13.5134C46.9002 13.5134 47.26 13.3996 47.5573 13.172C47.8546 12.9408 48.0804 12.6196 48.2345 12.2085C48.3887 11.7973 48.4658 11.3183 48.4658 10.7714C48.4658 10.2245 48.3887 9.7491 48.2345 9.34533C48.084 8.94155 47.8601 8.62771 47.5628 8.4038C47.2691 8.17989 46.9076 8.06793 46.4781 8.06793C46.034 8.06793 45.6632 8.18356 45.3659 8.41481C45.0686 8.64606 44.8447 8.96541 44.6942 9.37286C44.5437 9.7803 44.4684 10.2465 44.4684 10.7714C44.4684 11.3 44.5437 11.7716 44.6942 12.1864C44.8483 12.5975 45.0741 12.9224 45.3714 13.161C45.6724 13.3959 46.0413 13.5134 46.4781 13.5134ZM56.2389 15.1652C55.413 15.1652 54.6972 14.9835 54.0915 14.6201C53.4859 14.2567 53.016 13.7483 52.682 13.0949C52.3517 12.4415 52.1865 11.678 52.1865 10.8044C52.1865 9.9308 52.3517 9.16546 52.682 8.50841C53.016 7.85136 53.4859 7.34114 54.0915 6.97774C54.6972 6.61435 55.413 6.43265 56.2389 6.43265C57.0648 6.43265 57.7806 6.61435 58.3862 6.97774C58.9919 7.34114 59.4599 7.85136 59.7903 8.50841C60.1243 9.16546 60.2913 9.9308 60.2913 10.8044C60.2913 11.678 60.1243 12.4415 59.7903 13.0949C59.4599 13.7483 58.9919 14.2567 58.3862 14.6201C57.7806 14.9835 57.0648 15.1652 56.2389 15.1652ZM56.2499 13.5684C56.6977 13.5684 57.0721 13.4455 57.3731 13.1995C57.6741 12.9499 57.898 12.6159 58.0449 12.1974C58.1954 11.779 58.2706 11.3128 58.2706 10.7989C58.2706 10.2813 58.1954 9.81334 58.0449 9.39488C57.898 8.97275 57.6741 8.63689 57.3731 8.38728C57.0721 8.13768 56.6977 8.01287 56.2499 8.01287C55.7911 8.01287 55.4093 8.13768 55.1047 8.38728C54.8037 8.63689 54.5779 8.97275 54.4274 9.39488C54.2806 9.81334 54.2072 10.2813 54.2072 10.7989C54.2072 11.3128 54.2806 11.779 54.4274 12.1974C54.5779 12.6159 54.8037 12.9499 55.1047 13.1995C55.4093 13.4455 55.7911 13.5684 56.2499 13.5684ZM62.0711 15V3.72369H64.1139V8.4974H69.3391V3.72369H71.3873V15H69.3391V10.2098H64.1139V15H62.0711ZM73.5209 15V6.54277H75.5141V15H73.5209ZM74.523 5.34246C74.2073 5.34246 73.9357 5.23784 73.7081 5.02862C73.4805 4.81572 73.3667 4.5606 73.3667 4.26328C73.3667 3.96229 73.4805 3.70717 73.7081 3.49794C73.9357 3.28505 74.2073 3.1786 74.523 3.1786C74.8423 3.1786 75.114 3.28505 75.3379 3.49794C75.5654 3.70717 75.6792 3.96229 75.6792 4.26328C75.6792 4.5606 75.5654 4.81572 75.3379 5.02862C75.114 5.23784 74.8423 5.34246 74.523 5.34246ZM85.1179 6.54277L82.1061 15H79.9037L76.8919 6.54277H79.0173L80.9609 12.8251H81.049L82.9981 6.54277H85.1179ZM89.9536 15.1652C89.1056 15.1652 88.3733 14.989 87.7567 14.6366C87.1437 14.2805 86.672 13.7777 86.3416 13.128C86.0113 12.4746 85.8461 11.7056 85.8461 10.8209C85.8461 9.95099 86.0113 9.18749 86.3416 8.53044C86.6757 7.86972 87.1418 7.35582 87.7402 6.98876C88.3385 6.61802 89.0414 6.43265 89.849 6.43265C90.3702 6.43265 90.8621 6.51707 91.3246 6.68592C91.7907 6.8511 92.2019 7.10805 92.5579 7.45677C92.9176 7.80548 93.2003 8.24963 93.4058 8.78922C93.6114 9.32514 93.7142 9.96384 93.7142 10.7053V11.3165H86.7821V9.97301H91.8036C91.7999 9.59126 91.7173 9.25173 91.5558 8.9544C91.3943 8.65341 91.1686 8.41665 90.8786 8.24413C90.5923 8.0716 90.2582 7.98534 89.8765 7.98534C89.469 7.98534 89.1111 8.08445 88.8028 8.28267C88.4945 8.47721 88.254 8.73416 88.0815 9.05351C87.9127 9.36919 87.8264 9.71607 87.8227 10.0941V11.2669C87.8227 11.7588 87.9127 12.1809 88.0925 12.5333C88.2724 12.882 88.5238 13.15 88.8469 13.3372C89.1699 13.5207 89.548 13.6125 89.9811 13.6125C90.2711 13.6125 90.5335 13.5721 90.7685 13.4914C91.0034 13.4069 91.2071 13.284 91.3796 13.1225C91.5521 12.9609 91.6825 12.7609 91.7706 12.5223L93.6316 12.7315C93.5141 13.2234 93.2902 13.6529 92.9599 14.0199C92.6332 14.3833 92.2147 14.666 91.7045 14.8679C91.1943 15.0661 90.6106 15.1652 89.9536 15.1652Z" fill="black"/>
</svg>
